<svg width="128" height="127" viewBox="0 0 128 127" fill="none" xmlns="http://www.w3.org/2000/svg">
<path d="M70.1167 119.824C101.667 116.176 124.336 87.8741 120.749 56.6095C117.162 25.3449 88.6773 2.95708 57.127 6.60485C25.5766 10.2526 2.90786 38.5547 6.49488 69.8193C10.0819 101.084 38.5664 123.472 70.1167 119.824Z" fill="#D4DFFF"/>
<path d="M97.6434 80.7415C100.482 78.4722 101.212 74.0217 99.3955 70.866C97.5787 67.7103 93.5197 66.1231 90.0063 67.0374C88.5686 67.4133 87.1863 68.1976 86.3403 69.4227C81.5741 76.3189 90.6859 86.3058 97.6434 80.7415Z" fill="black"/>
<path d="M36.1399 62.7029C31.836 79.7066 42.1081 97.9262 56.0555 101.927C63.5539 104.08 71.755 101.393 78.5368 96.9609C84.3709 93.1462 89.1834 88.3569 91.1759 80.4955C95.4798 63.4918 86.4836 49.5742 72.5362 45.5692C58.5889 41.5689 40.4485 45.6992 36.1399 62.7029Z" fill="url(#paint0_linear_17_584)"/>
<path d="M38.4468 51.2821C36.3295 51.3702 34.4017 52.6557 33.0379 54.2846C30.5138 57.3011 29.6586 61.6448 30.8513 65.3992C31.4615 67.3158 32.6958 69.1721 34.5727 69.8683C36.4774 70.5736 38.6548 69.9379 40.3514 68.8148C43.7169 66.5872 45.7833 62.16 45.2794 58.1179C44.8773 54.8786 41.9324 51.1335 38.4421 51.2821H38.4468Z" fill="#FFCCE9"/>
<path d="M38.1139 64.1648C36.8334 61.9465 35.881 59.5379 35.2893 57.0412" stroke="black" stroke-width="1.93" stroke-miterlimit="10" stroke-linecap="round"/>
<path d="M39.6117 58.4845C37.5545 59.7329 35.673 61.2736 34.0457 63.051" stroke="black" stroke-width="1.93" stroke-miterlimit="10" stroke-linecap="round"/>
<path d="M27.0651 49.486C27.606 47.639 28.9466 46.089 30.56 45.0448C30.6664 44.9752 30.7773 44.9149 30.8836 44.8499C30.2965 42.7941 30.5138 40.2742 31.0639 38.4782C32.2012 34.7749 35.3309 31.763 39.0616 30.7745C41.5904 30.1063 44.2901 30.3337 46.8096 31.0344C46.953 31.0762 47.0963 31.118 47.2396 31.1597C47.4569 30.51 47.725 29.8742 48.0578 29.2709C50.1982 25.3309 54.627 22.76 59.0928 22.8621C62.3935 22.9363 65.5001 24.3332 68.5051 25.7068C69.5545 26.1848 70.6455 26.7139 71.6533 27.3311C74.256 26.686 76.9511 26.6768 79.6417 27.3497C84.7408 28.6398 89.1187 31.8883 93.0343 35.406C95.0869 37.2484 97.2412 39.773 96.52 42.446C96.349 43.0864 96.03 43.6341 95.6185 44.1121C96.2565 44.8963 96.8529 45.7131 97.3799 46.5763C98.1195 47.7922 98.7205 49.0823 99.266 50.4003C99.3492 50.4792 99.4325 50.5534 99.5157 50.6369C103.519 54.6976 108.211 64.7355 103.944 70.0724C102.437 71.9612 99.7329 72.3371 97.3244 72.2536C93.4874 72.119 89.6873 71.163 86.2294 69.4923C82.8962 67.882 80.7651 65.1718 77.455 63.515C75.4857 62.5312 73.3083 61.7144 71.9306 59.9927C70.9968 58.8232 70.4652 57.2732 69.1939 56.4843C67.8671 55.6582 66.1659 55.932 64.6172 56.1177C59.176 56.7674 53.5684 55.9367 48.5432 53.737C48.8345 53.8623 46.5646 55.6397 46.3427 55.7418C45.3396 56.2105 44.1191 56.3776 43.0235 56.2058C42.7461 56.1641 42.2468 56.0434 42.2607 56.0713L41.5303 55.8067C40.6057 55.4216 39.7828 54.8507 39.0662 54.1546C38.2202 53.7277 37.3326 53.5096 36.2879 53.8855C35.1784 54.2846 34.4248 55.3287 33.3939 55.9042C31.7158 56.8416 29.4459 56.3219 28.1515 54.9018C26.8571 53.4771 26.515 51.3331 27.0605 49.4814L27.0651 49.486Z" fill="black"/>
<path d="M26.8525 35.2343L39.4314 40.8264L54.2479 21.6555L39.1911 17.7526L26.8525 35.2343Z" fill="white"/>
<path d="M16.2844 72.6156L21.2864 74.9035L38.4653 44.1863L25.2853 39.2857L16.2844 72.6156Z" fill="white"/>
<path d="M49.5418 63.2877C49.5418 63.2877 50.6004 69.4599 54.946 72.1747C59.2916 74.8849 65.2736 73.1168 65.2736 73.1168C65.2736 73.1168 64.816 70.4623 63.2811 67.8727C62.4721 66.513 61.3672 65.1672 59.8694 64.2297C59.4765 63.9838 59.0697 63.7749 58.6536 63.5986C54.4883 61.8258 49.5418 63.2877 49.5418 63.2877Z" fill="white"/>
<path d="M56.601 71.7013C58.649 72.9822 61.3441 72.351 62.6201 70.2952C63.087 69.5387 63.2996 68.6988 63.2811 67.8727C62.4721 66.513 61.3672 65.1671 59.8694 64.2297C59.4765 63.9838 59.0697 63.7749 58.6536 63.5986C57.2852 63.6775 55.9815 64.4061 55.2049 65.6591C53.929 67.7149 54.5577 70.4205 56.6056 71.7013H56.601Z" fill="black"/>
<path d="M73.1511 76.5787C73.1511 76.5787 76.2207 81.0524 80.6218 81.6047C85.0274 82.1569 89.1002 78.5835 89.1002 78.5835C89.1002 78.5835 87.1355 75.7202 84.0936 74.2909C83.3354 73.9335 82.5079 73.669 81.6295 73.5576C80.8437 73.4602 80.0716 73.4926 79.332 73.6133C75.9064 74.1656 73.1557 76.5834 73.1557 76.5834L73.1511 76.5787Z" fill="white"/>
<path d="M77.5336 76.3838C77.2747 78.4675 78.7448 80.3702 80.8252 80.6348C82.9055 80.8993 84.7963 79.4189 85.0598 77.3305C85.2031 76.1796 84.8194 75.0844 84.0936 74.2909C83.3354 73.9335 82.5079 73.669 81.6296 73.5576C80.8437 73.4602 80.0716 73.4926 79.332 73.6133C78.3796 74.1934 77.6908 75.1912 77.5383 76.3885L77.5336 76.3838Z" fill="black"/>
<path d="M70.0584 74.9081C70.3357 76.6484 71.0384 81.0571 71.3065 82.7371L71.5146 84.0411C72.0046 85.9995 71.1863 87.6934 68.9581 87.2711C67.9642 87.0669 67.1875 86.6121 66.3323 86.1573C64.8992 85.2338 62.8466 84.2963 62.805 82.2591C62.7911 81.433 63.503 80.0779 64.5016 80.6626C64.9315 80.9272 65.0656 81.4933 64.8021 81.9249C64.6357 82.1662 64.4646 82.2034 64.5941 82.6303C65.0332 83.5724 66.2306 84.2407 67.0997 84.8672C67.9549 85.3498 69.0922 86.2362 70.0861 85.9392C70.6408 85.6329 70.4467 84.8254 70.4005 84.185L70.2664 82.8716L69.9936 80.245L69.4481 74.987C69.4065 74.5972 69.9983 74.5136 70.063 74.9035L70.0584 74.9081Z" fill="black"/>
<path d="M65.8237 91.8933C61.3256 90.2876 57.0818 87.9487 53.6886 84.4913C52.6993 83.3172 54.3774 81.8089 55.4314 82.9366C57.4424 85.5355 60.3086 87.7259 63.1332 89.4569C64.1133 90.0324 65.1303 90.58 66.1566 91.0487C66.6651 91.2807 66.3554 92.0696 65.8237 91.8887V91.8933Z" fill="black"/>
<defs>
<linearGradient id="paint0_linear_17_584" x1="83.1677" y1="99.9069" x2="60.7409" y2="68.5603" gradientUnits="userSpaceOnUse">
<stop stop-color="#FFABDB"/>
<stop offset="1" stop-color="#FFCCE9"/>
</linearGradient>
</defs>
</svg>
