<svg width="82" height="104" viewBox="0 0 82 104" fill="none" xmlns="http://www.w3.org/2000/svg">
<path d="M81.2436 97.2073L43.4068 103.514V48.6681L81.2436 33.4169V97.2073Z" fill="#01258F"/>
<path d="M19.8749 81.1744L43.6331 103.714V48.8686L20.9537 30.511L19.8749 81.1744Z" fill="#00133D"/>
<path d="M55.6012 15.2819L20.9537 30.5111L43.6331 48.8687L81.2436 33.417L55.6012 15.2819Z" fill="#295FFF"/>
<path d="M71.8006 23.6877L63.745 28.5758L58.1542 26.4253L57.6662 31.4158L45.5909 35.6158L35.7745 28.5758L30.8671 23.7902L38.5229 19.2931L59.8179 13.9117L71.8006 23.6877Z" fill="#0142FF"/>
<path d="M74.2506 30.5082L65.5189 34.935L59.7238 33.1754L57.8557 38.7442L44.8045 43.1476L45.5908 35.6158L57.6662 31.4158L58.1541 26.4253L63.745 28.5758L71.8006 23.6877L74.2506 30.5082Z" fill="#00133D"/>
<path d="M45.5908 35.6158L44.8045 43.1476L29.9793 30.5082L30.867 23.7902L35.7745 28.5758L45.5908 35.6158Z" fill="#00133D"/>
<path d="M25.2982 21.9632C25.2982 21.9632 33.0334 15.0447 29.7148 7.09418C29.7148 7.09418 38.7154 11.7246 42.5235 6.7648C46.3316 1.80357 50.3998 0.714417 50.3998 0.714417C50.3998 0.714417 44.8045 10.0996 55.0677 6.44274L65.3573 2.03341C65.3573 2.03341 61.9196 14.3406 71.7815 12.8679C71.7815 12.8679 62.4031 16.5643 65.9187 21.9618C65.9187 21.9618 49.5136 19.7717 54.9824 30.3251C54.9824 30.3251 42.9718 25.1224 44.9251 34.0713C44.9251 34.0713 37.3089 27.2626 26.4696 34.0713C26.4696 34.0713 32.4264 25.4151 25.2982 21.9618V21.9632Z" fill="#FEBD00"/>
<path d="M29.9543 20.918C29.9543 20.918 33.9888 15.5542 31.3344 9.19637C31.3344 9.19637 40.2131 12.6058 43.4068 8.75573C46.2081 5.37993 46.1082 5.11642 46.6491 3.80475C46.6491 3.80475 49.6312 12.2867 56.1083 9.58284L61.7447 6.36075C61.7447 6.36075 59.8355 12.0349 67.7236 10.8565C67.7236 10.8565 64.912 15.339 67.7236 19.6546C67.7236 19.6546 53.7934 17.2757 58.1659 25.7167C58.1659 25.7167 45.9421 24.427 47.5044 31.5826C47.5044 31.5826 39.5591 25.156 30.8906 30.6004C30.8906 30.6004 35.654 23.6775 29.9529 20.9165L29.9543 20.918Z" fill="white"/>
<path d="M63.0116 8.58448L57.3428 10.8214L51.2699 13.9893L56.1068 9.58434C56.1068 9.58434 59.6591 7.34893 60.275 6.65503C61.6741 5.07839 59.1712 4.19857 59.1712 4.19857L53.7435 7.16887L47.694 11.2942L49.7487 7.19229C49.7487 7.19229 53.7611 5.0169 54.0918 3.89261C54.4225 2.76832 52.5824 2.20618 52.5824 2.20618L46.8284 5.23356C46.8284 5.23356 45.2998 6.92439 44.4606 7.99745C41.8195 11.3732 38.7066 11.1405 38.4156 11.1112C38.5214 11.1083 38.9638 10.9531 40.2513 9.09246C41.7725 6.89219 40.2395 5.35946 40.2395 5.35946L38.7184 6.36225C38.7184 6.36225 34.5105 8.3605 33.614 9.41745C32.7189 10.4744 31.7518 17.4837 31.7518 17.4837C21.4005 19.7191 10.8786 23.8034 0.243652 29.0969L10.9183 50.1467C10.9183 50.1467 16.1697 43.4009 24.6104 36.5088C33.0511 29.6166 37.8615 28.2962 40.9524 26.194C46.2037 26.3901 48.473 24.8984 50.3381 23.9703C51.6344 23.3247 56.9636 20.1202 56.9636 20.1202C56.9636 20.1202 61.436 19.5815 62.0798 19.3136C64.1903 18.4337 62.0548 17.0533 62.0548 17.0533L56.8284 17.0415L53.523 17.1235L59.1844 13.6072C59.1844 13.6072 63.5304 11.8007 64.0434 11.0775C65.2206 9.41599 63.0131 8.58448 63.0131 8.58448H63.0116Z" fill="#FFCCE9"/>
<path d="M62.1533 15.1648C63.9405 14.7739 65.7468 14.5148 67.5722 14.3918C65.785 14.7827 63.9787 15.0404 62.1533 15.1648Z" fill="#8EA8F5"/>
<path d="M61.386 15.3566C63.7244 15.0345 66.1068 14.8398 68.4672 14.7827C66.1289 15.1062 63.7464 15.298 61.386 15.3566Z" fill="#8EA8F5"/>
<path d="M52.8925 24.5309C55.028 25.7138 57.1224 27.0284 59.1153 28.4367C56.9798 27.2538 54.8854 25.9378 52.8925 24.5309Z" fill="#8EA8F5"/>
<path d="M52.9645 24.3802C54.4945 24.7886 55.9818 25.323 57.4207 25.9832C55.8893 25.5762 54.4033 25.0404 52.9645 24.3802Z" fill="#8EA8F5"/>
<path d="M52.7132 24.5016C53.889 25.5161 54.9707 26.6243 55.9525 27.8262C54.7752 26.8132 53.6964 25.7035 52.7132 24.5016Z" fill="#8EA8F5"/>
<path d="M25.3702 13.2558C27.5219 13.2602 29.6677 13.3963 31.8018 13.6686C29.6501 13.6657 27.5043 13.5266 25.3702 13.2558Z" fill="#8EA8F5"/>
<path d="M13.3478 17.9199C18.6535 17.3665 24.0298 16.9376 29.3561 16.6462C24.0504 17.1996 18.6741 17.6271 13.3478 17.9199Z" fill="#8EA8F5"/>
<path d="M18.6815 18.1673C21.765 17.6857 24.9028 17.3314 28.0157 17.1147C24.9322 17.5964 21.7944 17.9492 18.6815 18.1673Z" fill="#8EA8F5"/>
<path d="M28.9138 37.1749C32.691 34.0757 36.5946 31.0454 40.5349 28.1542C36.7577 31.2533 32.8541 34.2836 28.9138 37.1749Z" fill="#8EA8F5"/>
<path d="M32.81 33.3013C35.2527 31.3674 37.8056 29.5141 40.4056 27.7955C37.9629 29.7308 35.4085 31.5812 32.81 33.3013Z" fill="#8EA8F5"/>
<path d="M21.1036 12.4404C24.7294 12.6468 28.3861 12.9894 31.987 13.4622C28.3611 13.2558 24.7044 12.9118 21.1036 12.4404Z" fill="#8EA8F5"/>
<path d="M44.9383 35.38C45.5041 32.8255 46.2052 30.2724 47.0297 27.7881C46.4653 30.3427 45.7613 32.8958 44.9383 35.38Z" fill="#8EA8F5"/>
<path d="M45.144 36.1515C45.995 32.6308 46.9856 29.1013 48.0938 25.6523C47.2443 29.1745 46.2522 32.7025 45.144 36.1515Z" fill="#8EA8F5"/>
<path d="M57.0754 3.30554C55.7585 4.57915 54.3549 5.75175 52.8646 6.81895C54.18 5.54388 55.585 4.3742 57.0754 3.30554Z" fill="#8EA8F5"/>
<path d="M60.5527 8.71326C61.7844 7.60507 63.0983 6.60375 64.4946 5.71222C63.2644 6.82041 61.949 7.82027 60.5527 8.71326Z" fill="#8EA8F5"/>
<path d="M61.2376 7.52312C62.0092 6.76627 62.8749 6.10458 63.8096 5.56146C63.0395 6.31977 62.1724 6.97854 61.2376 7.52312Z" fill="#8EA8F5"/>
<path d="M56.6506 2.20471C55.4043 3.85894 54.0565 5.42827 52.6059 6.90683C53.8508 5.25113 55.2014 3.68474 56.6506 2.20471Z" fill="#8EA8F5"/>
<path d="M45.7495 3.80182C44.8986 5.28477 43.9359 6.69453 42.8615 8.02523C43.7125 6.54228 44.6752 5.13399 45.7495 3.80182Z" fill="#8EA8F5"/>
<path d="M45.097 3.11963C44.4209 4.7885 43.6258 6.40174 42.7072 7.95203C43.3818 6.2817 44.1799 4.67138 45.097 3.11963Z" fill="#8EA8F5"/>
<path d="M32.2765 5.29651C33.5067 5.87915 34.6824 6.55987 35.798 7.33868C34.5663 6.75604 33.392 6.07385 32.2765 5.29651Z" fill="#8EA8F5"/>
<path d="M31.837 5.99182C33.1848 6.38562 34.4928 6.88481 35.7598 7.49088C34.412 7.09708 33.1039 6.59642 31.837 5.99182Z" fill="#8EA8F5"/>
<path d="M63.0116 8.58448L57.3428 10.8214L51.2699 13.9893L56.1068 9.58434C56.1068 9.58434 59.6591 7.34893 60.275 6.65503C61.6741 5.07839 59.1712 4.19857 59.1712 4.19857L53.7435 7.16887L47.694 11.2942L49.7487 7.19229C49.7487 7.19229 53.7611 5.0169 54.0918 3.89261C54.4225 2.76832 52.5824 2.20618 52.5824 2.20618L46.8284 5.23356C46.8284 5.23356 45.2998 6.92439 44.4606 7.99745C41.8195 11.3732 38.7066 11.1405 38.4156 11.1112C38.5214 11.1083 38.9638 10.9531 40.2513 9.09246C41.7725 6.89219 40.2395 5.35946 40.2395 5.35946L38.7184 6.36225C38.7184 6.36225 34.5105 8.3605 33.614 9.41745C32.7189 10.4744 31.7518 17.4837 31.7518 17.4837C21.4005 19.7191 10.8786 23.8034 0.243652 29.0969L10.9183 50.1467C10.9183 50.1467 16.1697 43.4009 24.6104 36.5088C33.0511 29.6166 37.8615 28.2962 40.9524 26.194C46.2037 26.3901 48.473 24.8984 50.3381 23.9703C51.6344 23.3247 56.9636 20.1202 56.9636 20.1202C56.9636 20.1202 61.436 19.5815 62.0798 19.3136C64.1903 18.4337 62.0548 17.0533 62.0548 17.0533L56.8284 17.0415L53.523 17.1235L59.1844 13.6072C59.1844 13.6072 63.5304 11.8007 64.0434 11.0775C65.2206 9.41599 63.0131 8.58448 63.0131 8.58448H63.0116Z" fill="url(#paint0_linear_17_607)"/>
<defs>
<linearGradient id="paint0_linear_17_607" x1="38.9741" y1="38.1381" x2="28.8384" y2="9.56626" gradientUnits="userSpaceOnUse">
<stop stop-color="#FFABDB"/>
<stop offset="0.56" stop-color="#FFABDB" stop-opacity="0"/>
</linearGradient>
</defs>
</svg>
